<svg width="54" height="32" viewBox="0 0 54 32" fill="none" xmlns="http://www.w3.org/2000/svg">
<rect width="54" height="32" rx="4" fill="#FEB4C7"/>
<path fill-rule="evenodd" clip-rule="evenodd" d="M9.05094 20.1873H7V11H9.05094V20.1873ZM14.1713 11H12.1648C12.1648 12.6907 11.4087 14.2425 10.0905 15.2577L9.29553 15.8697L12.3756 20.1876H14.908L12.0739 16.2145C13.4173 14.8392 14.1713 12.989 14.1713 11ZM17.4425 20.1848H15.5057V11.0018H17.4425V20.1848ZM23.2945 13.8325V14.2389C22.7718 13.8723 22.141 13.6569 21.4607 13.6569C19.66 13.6569 18.2004 15.1576 18.2004 17.0088C18.2004 18.86 19.66 20.3606 21.4607 20.3606C22.141 20.3606 22.7718 20.1452 23.2945 19.7788V20.1848H25.1444V13.8325H23.2945ZM23.2888 17.0088C23.2888 17.9114 22.5383 18.6432 21.6125 18.6432C20.6867 18.6432 19.9362 17.9114 19.9362 17.0088C19.9362 16.1062 20.6867 15.3746 21.6125 15.3746C22.5383 15.3746 23.2888 16.1062 23.2888 17.0088ZM42.8111 14.2389V13.8325H44.661V20.1848H42.8111V19.7788C42.2884 20.1452 41.6576 20.3606 40.9772 20.3606C39.1766 20.3606 37.7169 18.86 37.7169 17.0088C37.7169 15.1576 39.1766 13.6569 40.9772 13.6569C41.6576 13.6569 42.2884 13.8723 42.8111 14.2389ZM41.1291 18.6432C42.0549 18.6432 42.8053 17.9114 42.8053 17.0088C42.8053 16.1062 42.0549 15.3746 41.1291 15.3746C40.2033 15.3746 39.4529 16.1062 39.4529 17.0088C39.4529 17.9114 40.2033 18.6432 41.1291 18.6432ZM34.4295 13.6616C33.6905 13.6616 32.9912 13.8975 32.5236 14.5482V13.8328H30.6816V20.1847H32.5462V16.8466C32.5462 15.8806 33.1763 15.4076 33.9349 15.4076C34.748 15.4076 35.2154 15.9069 35.2154 16.8334V20.1847H37.0631V16.1452C37.0631 14.6669 35.9198 13.6616 34.4295 13.6616ZM28.0062 13.8326V14.6599C28.377 14.1636 29.068 13.8329 29.8193 13.8329V15.6813L29.809 15.6809C29.8051 15.6807 29.8013 15.6805 29.7973 15.6805C29.0653 15.6805 28.0104 16.2184 28.0104 17.219V20.1847H26.1122V13.8326H28.0062ZM45.4639 19.1252C45.4639 18.466 45.9836 17.9317 46.6247 17.9317C47.2659 17.9317 47.7857 18.466 47.7857 19.1252C47.7857 19.7842 47.2659 20.3186 46.6247 20.3186C45.9836 20.3186 45.4639 19.7842 45.4639 19.1252Z" fill="#17120F"/>
</svg>
