<svg width="54" height="32" viewBox="0 0 54 32" fill="none" xmlns="http://www.w3.org/2000/svg">
<rect width="54" height="32" rx="4" fill="white"/>
<path fill-rule="evenodd" clip-rule="evenodd" d="M27 23.0091C25.4112 24.3633 23.3503 25.1807 21.0984 25.1807C16.0735 25.1807 12 21.1108 12 16.0904C12 11.0699 16.0735 7 21.0984 7C23.3503 7 25.4112 7.81745 27 9.17156C28.5888 7.81745 30.6496 7 32.9016 7C37.9265 7 42 11.0699 42 16.0904C42 21.1108 37.9265 25.1807 32.9016 25.1807C30.6496 25.1807 28.5888 24.3633 27 23.0091Z" fill="#ED0006"/>
<path fill-rule="evenodd" clip-rule="evenodd" d="M27 23.0091C28.9563 21.3418 30.1967 18.8608 30.1967 16.0904C30.1967 13.3199 28.9563 10.8389 27 9.17156C28.5888 7.81745 30.6496 7 32.9016 7C37.9265 7 42 11.0699 42 16.0904C42 21.1108 37.9265 25.1807 32.9016 25.1807C30.6496 25.1807 28.5888 24.3633 27 23.0091Z" fill="#F9A000"/>
<path fill-rule="evenodd" clip-rule="evenodd" d="M26.9994 23.0092C28.9557 21.3418 30.1961 18.8609 30.1961 16.0904C30.1961 13.32 28.9557 10.839 26.9994 9.17163C25.0432 10.839 23.8027 13.32 23.8027 16.0904C23.8027 18.8609 25.0432 21.3418 26.9994 23.0092Z" fill="#FF5E00"/>
</svg>
