<svg width="54" height="32" viewBox="0 0 54 32" fill="none" xmlns="http://www.w3.org/2000/svg">
<rect width="54" height="32" rx="4" fill="white"/>
<path d="M33.4183 11.8272C33.4008 11.9399 33.3808 12.0551 33.3583 12.1735C32.5844 16.1722 29.9371 17.5536 26.5558 17.5536H24.8342C24.4208 17.5536 24.0723 17.8558 24.0079 18.2663L23.1264 23.8927L22.8768 25.4874C22.8348 25.757 23.0414 26 23.3115 26H26.3651C26.7267 26 27.0337 25.7356 27.0906 25.3767L27.1207 25.2205L27.6956 21.5485L27.7326 21.3471C27.7887 20.987 28.0965 20.7226 28.4581 20.7226H28.9148C31.8731 20.7226 34.189 19.5137 34.8659 16.0154C35.1487 14.5541 35.0022 13.3339 34.254 12.4757C34.0277 12.2169 33.7468 12.0022 33.4183 11.8272Z" fill="#179BD7"/>
<path d="M32.6085 11.5026C32.4904 11.4679 32.3683 11.4364 32.2431 11.4081C32.1174 11.3804 31.9885 11.3559 31.856 11.3345C31.3917 11.2589 30.8832 11.223 30.3383 11.223H25.7391C25.6258 11.223 25.5183 11.2488 25.422 11.2954C25.2099 11.398 25.0523 11.6002 25.0141 11.8476L24.0356 18.0846L24.0079 18.2663C24.0723 17.8558 24.4208 17.5536 24.8342 17.5536H26.5558C29.9371 17.5536 32.5844 16.1722 33.3583 12.1735C33.3808 12.0551 33.4008 11.9399 33.4183 11.8272C33.2226 11.7227 33.0101 11.6335 32.7817 11.5573C32.7255 11.5384 32.6674 11.5202 32.6085 11.5026Z" fill="#222D65"/>
<path d="M25.0141 11.8476C25.0523 11.6002 25.2099 11.398 25.422 11.2954C25.5183 11.2488 25.6258 11.223 25.7391 11.223H30.3383C30.8832 11.223 31.3917 11.2589 31.856 11.3345C31.9885 11.3559 32.1174 11.3804 32.2431 11.4081C32.3683 11.4364 32.4904 11.4679 32.6085 11.5026C32.6672 11.5202 32.7248 11.5391 32.7817 11.5573C33.0101 11.6335 33.2226 11.7227 33.4183 11.8272C33.6486 10.3494 33.4169 9.34345 32.6231 8.43238C31.7479 7.4294 30.1683 7 28.1471 7H22.2792C21.8662 7 21.5142 7.3022 21.4503 7.71335L19.0063 23.306C18.958 23.6144 19.1945 23.8928 19.5035 23.8928L23.1264 23.8927L24.0356 18.0846L25.0141 11.8476Z" fill="#253B80"/>
</svg>
