<svg width="54" height="32" viewBox="0 0 54 32" fill="none" xmlns="http://www.w3.org/2000/svg">
<rect width="54" height="32" rx="4" fill="white"/>
<path fill-rule="evenodd" clip-rule="evenodd" d="M18.5003 21.6336H15.5579L13.3514 13.3196C13.2466 12.9372 13.0243 12.5991 12.6972 12.4397C11.8808 12.0392 10.9813 11.7205 10 11.5598V11.2397H14.7401C15.3943 11.2397 15.885 11.7205 15.9667 12.279L17.1116 18.2761L20.0526 11.2397H22.9134L18.5003 21.6336ZM24.5488 21.6336H21.7699L24.0582 11.2397H26.8371L24.5488 21.6336ZM30.4324 14.1191C30.5142 13.5593 31.0048 13.2392 31.5773 13.2392C32.4768 13.1589 33.4567 13.3196 34.2744 13.7187L34.7651 11.4808C33.9473 11.1607 33.0478 11 32.2315 11C29.5343 11 27.5717 12.4397 27.5717 14.4378C27.5717 15.9579 28.9619 16.7561 29.9432 17.2369C31.0048 17.7163 31.4137 18.0364 31.3319 18.5159C31.3319 19.235 30.5142 19.5551 29.6979 19.5551C28.7165 19.5551 27.7352 19.3154 26.8371 18.9149L26.3465 21.1542C27.3278 21.5532 28.3894 21.714 29.3707 21.714C32.395 21.793 34.2744 20.3546 34.2744 18.1958C34.2744 15.4771 30.4324 15.3177 30.4324 14.1191V14.1191ZM44 21.6336L41.7934 11.2397H39.4234C38.9327 11.2397 38.4421 11.5598 38.2785 12.0392L34.1926 21.6336H37.0533L37.6243 20.1149H41.1392L41.4663 21.6336H44ZM39.8323 14.0388L40.6486 17.9561H38.3603L39.8323 14.0388Z" fill="#1434CB"/>
</svg>
